<svg width="11" height="8" viewBox="0 0 11 8" fill="none" xmlns="http://www.w3.org/2000/svg">
<path d="M0 0.666667C0 0.298477 0.298477 0 0.666667 0H1.33333C1.70152 0 2 0.298477 2 0.666667C2 1.03486 1.70152 1.33333 1.33333 1.33333H0.666667C0.298477 1.33333 0 1.03486 0 0.666667ZM3.33333 0.666667C3.33333 0.298477 3.63181 0 4 0H10C10.3682 0 10.6667 0.298477 10.6667 0.666667C10.6667 1.03486 10.3682 1.33333 10 1.33333H4C3.63181 1.33333 3.33333 1.03486 3.33333 0.666667ZM0 4C0 3.63181 0.298477 3.33333 0.666667 3.33333H1.33333C1.70152 3.33333 2 3.63181 2 4C2 4.36819 1.70152 4.66667 1.33333 4.66667H0.666667C0.298477 4.66667 0 4.36819 0 4ZM3.33333 4C3.33333 3.63181 3.63181 3.33333 4 3.33333H10C10.3682 3.33333 10.6667 3.63181 10.6667 4C10.6667 4.36819 10.3682 4.66667 10 4.66667H4C3.63181 4.66667 3.33333 4.36819 3.33333 4ZM0 7.33333C0 6.96514 0.298477 6.66667 0.666667 6.66667H1.33333C1.70152 6.66667 2 6.96514 2 7.33333C2 7.70152 1.70152 8 1.33333 8H0.666667C0.298477 8 0 7.70152 0 7.33333ZM3.33333 7.33333C3.33333 6.96514 3.63181 6.66667 4 6.66667H10C10.3682 6.66667 10.6667 6.96514 10.6667 7.33333C10.6667 7.70152 10.3682 8 10 8H4C3.63181 8 3.33333 7.70152 3.33333 7.33333Z" fill="#1C1D22"/>
</svg>
