<svg width="71" height="18" viewBox="0 0 71 18" fill="none" xmlns="http://www.w3.org/2000/svg">
<path d="M63.812 5.538C63.812 5.29533 63.9193 5.08067 64.134 4.894C64.3487 4.70733 64.638 4.56267 65.002 4.46C65.3753 4.35733 65.8 4.306 66.276 4.306C66.9387 4.306 67.4987 4.41333 67.956 4.628C68.4227 4.83333 68.7773 5.12733 69.02 5.51C69.2627 5.88333 69.384 6.31733 69.384 6.812C69.384 7.316 69.244 7.81067 68.964 8.296C68.684 8.772 68.2267 9.28067 67.592 9.822L65.534 11.628H69.3C69.3467 11.6933 69.3887 11.7867 69.426 11.908C69.4727 12.0293 69.496 12.16 69.496 12.3C69.496 12.5427 69.4353 12.72 69.314 12.832C69.202 12.944 69.0573 13 68.88 13H63.98C63.8307 12.8973 63.714 12.7667 63.63 12.608C63.5553 12.4493 63.518 12.272 63.518 12.076C63.518 11.8427 63.5647 11.6467 63.658 11.488C63.7513 11.32 63.8633 11.1753 63.994 11.054L66.22 9.01C66.7613 8.534 67.13 8.142 67.326 7.834C67.522 7.51667 67.62 7.204 67.62 6.896C67.62 6.54133 67.4893 6.25667 67.228 6.042C66.976 5.818 66.6027 5.706 66.108 5.706C65.716 5.706 65.366 5.77133 65.058 5.902C64.75 6.03267 64.4933 6.168 64.288 6.308C64.1573 6.23333 64.0453 6.13067 63.952 6C63.8587 5.86933 63.812 5.71533 63.812 5.538Z" fill="#1C1D22" fill-opacity="0.5"/>
<g opacity="0.5">
<path d="M55.5971 4.1818C55.0816 3.61948 54.1508 3.58483 53.5303 4.20533L47.4553 10.2803C47.2982 10.4374 47.2982 10.6376 47.4553 10.7947C47.6124 10.9518 47.8125 10.9518 47.9696 10.7947L52.9946 5.76967C53.2875 5.47678 53.7624 5.47678 54.0553 5.76967C54.3482 6.06257 54.3482 6.53744 54.0553 6.83033L49.0303 11.8553C48.2874 12.5982 47.1375 12.5982 46.3946 11.8553C45.6517 11.1124 45.6517 9.96257 46.3946 9.21967L52.4696 3.14467C53.6453 1.96903 55.5558 1.93077 56.6917 3.15616C57.8559 4.33247 57.8902 6.23368 56.6696 7.366L49.5553 14.4803C47.9124 16.1232 45.3375 16.1232 43.6946 14.4803C42.0517 12.8374 42.0517 10.2626 43.6946 8.61967L49.7696 2.54467C50.0625 2.25178 50.5374 2.25178 50.8303 2.54467C51.1232 2.83757 51.1232 3.31244 50.8303 3.60533L44.7553 9.68033C43.6982 10.7374 43.6982 12.3626 44.7553 13.4197C45.8124 14.4768 47.4375 14.4768 48.4946 13.4197L55.6196 6.29467C55.6273 6.28699 55.6352 6.27948 55.6432 6.27214C56.2055 5.75668 56.2401 4.82584 55.6196 4.20533C55.6119 4.19765 55.6044 4.18981 55.5971 4.1818Z" fill="#1C1D22"/>
</g>
<path d="M22.938 4.488H27.894C28.0247 4.56267 28.132 4.67 28.216 4.81C28.3093 4.95 28.356 5.118 28.356 5.314C28.356 5.43533 28.342 5.55667 28.314 5.678C28.2953 5.79933 28.2533 5.92533 28.188 6.056L24.968 13.07C24.8747 13.0793 24.786 13.084 24.702 13.084C24.618 13.084 24.5387 13.084 24.464 13.084C24.1747 13.084 23.932 13.0233 23.736 12.902C23.54 12.7807 23.442 12.5847 23.442 12.314C23.442 12.1647 23.4747 12.006 23.54 11.838C23.6147 11.67 23.708 11.474 23.82 11.25L26.438 5.902H22.49C22.4527 5.82733 22.4107 5.72933 22.364 5.608C22.3267 5.48667 22.308 5.356 22.308 5.216C22.308 4.964 22.364 4.782 22.476 4.67C22.5973 4.54867 22.7513 4.488 22.938 4.488Z" fill="#1C1D22" fill-opacity="0.5"/>
<g opacity="0.5">
<path d="M1.5 4.5C1.5 3.67157 2.17157 3 3 3H15C15.8284 3 16.5 3.67157 16.5 4.5V12.75C16.5 13.5784 15.8284 14.25 15 14.25H11.5607L9.53033 16.2803C9.23744 16.5732 8.76256 16.5732 8.46967 16.2803L6.43934 14.25H3C2.17157 14.25 1.5 13.5784 1.5 12.75V4.5ZM15 4.5H3V12.75H6.75C6.94891 12.75 7.13968 12.829 7.28033 12.9697L9 14.6893L10.7197 12.9697C10.8603 12.829 11.0511 12.75 11.25 12.75H15V4.5ZM4.5 7.125C4.5 6.71079 4.83579 6.375 5.25 6.375H12.75C13.1642 6.375 13.5 6.71079 13.5 7.125C13.5 7.53921 13.1642 7.875 12.75 7.875H5.25C4.83579 7.875 4.5 7.53921 4.5 7.125ZM4.5 10.125C4.5 9.71079 4.83579 9.375 5.25 9.375H9.75C10.1642 9.375 10.5 9.71079 10.5 10.125C10.5 10.5392 10.1642 10.875 9.75 10.875H5.25C4.83579 10.875 4.5 10.5392 4.5 10.125Z" fill="#1C1D22"/>
</g>
</svg>
